#!OML:ASF H:\Dans Jumps\Project 1\Capture day 1\Session 1\subject.ASF
:FULLY-SPECIFIED
:DEGREES
633
root 0.408093 17.5818 10.8268 10.0471 -2.28479 -2.65564
lowerback 3.66959 0.564213 0.15343
upperback 5.48509 0.708796 1.51359
thorax 3.57461 0.324395 1.47002
lowerneck -14.9944 0.840088 -1.77274
upperneck 34.0887 1.59812 0.523194
head 14.1297 0.525745 0.781349
rclavicle -5.91384e-015 4.57205e-015
rhumerus -15.0719 -3.52999 -87.6252
rradius 27.2072
rwrist 28.1001
rhand -21.5025 -26.9122
rfingers 7.12502
rthumb 4.88919 -56.8357
lclavicle -5.91384e-015 4.57205e-015
lhumerus -15.146 -12.0623 92.385
lradius 22.801
lwrist 10.2778
lhand -27.6981 -7.75571
lfingers 7.12502
lthumb -1.09432 22.2212
rfemur -20.7098 -1.66246 22.0243
rtibia 26.5506
rfoot -14.7697 0.813078
rtoes 11.5795
lfemur -18.0174 6.69737 -17.7281
ltibia 25.1369
lfoot -11.9926 9.53603
ltoes -12.7075
634
root 0.40667 17.5819 10.8253 10.0332 -2.28457 -2.65238
lowerback 3.66727 0.562535 0.153148
upperback 5.4832 0.706571 1.51348
thorax 3.57399 0.323288 1.47008
lowerneck -15.0101 0.832762 -1.78018
upperneck 34.0666 1.58383 0.539634
head 14.1232 0.521096 0.786909
rclavicle 6.4605e-016 6.4605e-015
rhumerus -15.0669 -3.54884 -87.606
rradius 27.1828
rwrist 28.1293
rhand -21.5087 -26.9123
rfingers 7.12502
rthumb 4.88317 -56.8361
lclavicle 6.4605e-016 6.4605e-015
lhumerus -15.1527 -12.0393 92.373
lradius 22.7846
lwrist 10.2606
lhand -27.6977 -7.76616
lfingers 7.12502
lthumb -1.09395 22.2108
rfemur -20.7 -1.66122 22.026
rtibia 26.5503
rfoot -14.7655 0.810944
rtoes 11.5817
lfemur -18.0059 6.69425 -17.7245
ltibia 25.1332
lfoot -11.987 9.53512
ltoes -12.6865
635
root 0.405234 17.5818 10.8237 10.0207 -2.28164 -2.64849
lowerback 3.66872 0.560156 0.152581
upperback 5.47873 0.703483 1.51352
thorax 3.56858 0.321762 1.4704
lowerneck -15.0251 0.827631 -1.78329
upperneck 34.0404 1.57387 0.549109
head 14.1148 0.517972 0.789543
rclavicle -1.20762e-014 2.28602e-015
rhumerus -15.0693 -3.55324 -87.5861
rradius 27.1668
rwrist 28.145
rhand -21.5108 -26.9206
rfingers 7.12502
rthumb 4.88111 -56.8444
lclavicle -1.20762e-014 2.28602e-015
lhumerus -15.1554 -12.0203 92.3584
lradius 22.7616
lwrist 10.2427
lhand -27.6907 -7.7643
lfingers 7.12502
lthumb -1.08717 22.2127
rfemur -20.6932 -1.65855 22.0273
rtibia 26.5525
rfoot -14.7629 0.803546
rtoes 11.5815
lfemur -17.9971 6.69118 -17.7213
ltibia 25.129
lfoot -11.9822 9.52975
ltoes -12.6631
636
root 0.403767 17.5818 10.8222 10.0108 -2.27687 -2.64439
lowerback 3.67053 0.557547 0.15239
upperback 5.47236 0.700128 1.5135
thorax 3.56099 0.320135 1.47041
lowerneck -15.0388 0.825922 -1.78177
upperneck 34.0114 1.57052 0.550115
head 14.1049 0.517166 0.788968
rclavicle -1.04362e-015 4.37326e-015
rhumerus -15.0792 -3.55059 -87.5658
rradius 27.1624
rwrist 28.1491
rhand -21.5082 -26.9346
rfingers 7.12502
rthumb 4.88361 -56.8583
lclavicle -1.04362e-015 4.37326e-015
lhumerus -15.1545 -12.0131 92.3423
lradius 22.7314
lwrist 10.2288
lhand -27.6871 -7.74919
lfingers 7.12502
lthumb -1.08367 22.2278
rfemur -20.6903 -1.6534 22.0286
rtibia 26.5568
rfoot -14.7609 0.791359
rtoes 11.5838
lfemur -17.9915 6.68804 -17.7185
ltibia 25.1245
lfoot -11.9773 9.5226
ltoes -12.6439
637
root 0.402546 17.5818 10.8204 10.0024 -2.26795 -2.6323
lowerback 3.66982 0.552848 0.14678
upperback 5.46897 0.693902 1.51221
thorax 3.55795 0.316876 1.47223
lowerneck -15.0615 0.825757 -1.78104
upperneck 33.9765 1.57271 0.543157
head 14.0943 0.517601 0.786236
rclavicle -4.47266e-015 -5.56597e-015
rhumerus -15.0877 -3.55668 -87.5423
rradius 27.1714
rwrist 28.1635
rhand -21.5032 -26.9454
rfingers 7.12502
rthumb 4.88846 -56.869
lclavicle -4.47266e-015 -5.56597e-015
lhumerus -15.138 -12.0059 92.3249
lradius 22.6874
lwrist 10.2107
lhand -27.6838 -7.72641
lfingers 7.12502
lthumb -1.08056 22.2506
rfemur -20.6899 -1.65133 22.0205
rtibia 26.5626
rfoot -14.7588 0.77761
rtoes 11.5846
lfemur -17.9882 6.67834 -17.725
ltibia 25.1195
lfoot -11.9705 9.51823
ltoes -12.6342
638
root 0.401316 17.5817 10.8187 9.99497 -2.25579 -2.62627
lowerback 3.67181 0.546843 0.146482
upperback 5.4627 0.685988 1.51394
thorax 3.55047 0.312934 1.47413
lowerneck -15.0802 0.828865 -1.7773
upperneck 33.9427 1.58091 0.529945
head 14.0835 0.520152 0.781397
rclavicle 2.48481e-016 1.68967e-015
rhumerus -15.0972 -3.56795 -87.5193
rradius 27.1793
rwrist 28.1788
rhand -21.4997 -26.9552
rfingers 7.12502
rthumb 4.89185 -56.8787
lclavicle 2.48481e-016 1.68967e-015
lhumerus -15.1259 -11.987 92.3081
lradius 22.6411
lwrist 10.1785
lhand -27.6826 -7.71472
lfingers 7.12502
lthumb -1.0794 22.2623
rfemur -20.6893 -1.64928 22.0193
rtibia 26.5677
rfoot -14.7575 0.761731
rtoes 11.5859
lfemur -17.9869 6.67126 -17.7252
ltibia 25.115
lfoot -11.9608 9.51155
ltoes -12.6435
639
root 0.400076 17.5817 10.8171 9.98732 -2.24319 -2.62194
lowerback 3.6733 0.5404 0.14662
upperback 5.45712 0.677439 1.5172
thorax 3.54399 0.308652 1.47739
lowerneck -15.0993 0.832669 -1.77426
upperneck 33.9104 1.59042 0.516593
head 14.0733 0.523131 0.776857
rclavicle 6.75868e-015 3.77691e-015
rhumerus -15.0972 -3.59211 -87.4972
rradius 27.1766
rwrist 28.203
rhand -21.4955 -26.9641
rfingers 7.12502
rthumb 4.89594 -56.8876
lclavicle 6.75868e-015 3.77691e-015
lhumerus -15.1177 -11.9538 92.2925
lradius 22.5963
lwrist 10.132
lhand -27.68 -7.70129
lfingers 7.12502
lthumb -1.07681 22.2757
rfemur -20.6865 -1.6449 22.0195
rtibia 26.5703
rfoot -14.7572 0.743864
rtoes 11.5852
lfemur -17.9856 6.66533 -17.7235
ltibia 25.1116
lfoot -11.9515 9.50491
ltoes -12.6526
640
root 0.398862 17.5816 10.8158 9.97808 -2.22956 -2.62165
lowerback 3.6776 0.533129 0.149511
upperback 5.44918 0.667816 1.52297
thorax 3.5335 0.303905 1.48164
lowerneck -15.1124 0.836021 -1.77197
upperneck 33.8833 1.59848 0.505707
head 14.0642 0.525681 0.773212
rclavicle 2.43511e-015 1.09332e-015
rhumerus -15.0928 -3.62307 -87.4755
rradius 27.157
rwrist 28.2338
rhand -21.4929 -26.9712
rfingers 7.12502
rthumb 4.89843 -56.8946
lclavicle 2.43511e-015 1.09332e-015
lhumerus -15.1241 -11.9 92.28
lradius 22.5587
lwrist 10.0669
lhand -27.679 -7.70113
lfingers 7.12502
lthumb -1.07592 22.2759
rfemur -20.6783 -1.64372 22.0239
rtibia 26.5682
rfoot -14.7564 0.729647
rtoes 11.5844
lfemur -17.9836 6.66385 -17.7178
ltibia 25.112
lfoot -11.9434 9.49616
ltoes -12.6732
641
root 0.397596 17.5815 10.8147 9.9675 -2.2175 -2.6283
lowerback 3.68189 0.527283 0.158887
upperback 5.43913 0.660141 1.53075
thorax 3.52082 0.300342 1.4843
lowerneck -15.1117 0.837035 -1.77348
upperneck 33.858 1.60093 0.503327
head 14.0526 0.526516 0.772651
rclavicle -1.39149e-015 -1.59028e-014
rhumerus -15.0868 -3.66326 -87.4539
rradius 27.1214
rwrist 28.266
rhand -21.4849 -26.9825
rfingers 7.12502
rthumb 4.90612 -56.9057
lclavicle -1.39149e-015 -1.59028e-014
lhumerus -15.1402 -11.84 92.2692
lradius 22.5252
lwrist 9.99759
lhand -27.6665 -7.70204
lfingers 7.12502
lthumb -1.06379 22.2751
rfemur -20.6652 -1.64241 22.0359
rtibia 26.5614
rfoot -14.755 0.718185
rtoes 11.5847
lfemur -17.98 6.66724 -17.7044
ltibia 25.1147
lfoot -11.939 9.48572
ltoes -12.6959
642
root 0.396311 17.5815 10.8137 9.95644 -2.20678 -2.63868
lowerback 3.68861 0.52329 0.172754
upperback 5.42469 0.655058 1.53922
thorax 3.50217 0.298259 1.48507
lowerneck -15.0975 0.833212 -1.77974
upperneck 33.8359 1.59438 0.509595
head 14.0395 0.524071 0.774873
rclavicle 6.21202e-015 1.58034e-014
rhumerus -15.0882 -3.70861 -87.4299
rradius 27.0743
rwrist 28.2974
rhand -21.479 -26.9884
rfingers 7.12502
rthumb 4.91181 -56.9115
lclavicle 6.21202e-015 1.58034e-014
lhumerus -15.1684 -11.7912 92.2614
lradius 22.4964
lwrist 9.93936
lhand -27.654 -7.70591
lfingers 7.12502
lthumb -1.05173 22.2712
rfemur -20.6488 -1.64153 22.0519
rtibia 26.5503
rfoot -14.7514 0.710427
rtoes 11.5918
lfemur -17.9758 6.67444 -17.6871
ltibia 25.1194
lfoot -11.9373 9.47258
ltoes -12.7111
643
root 0.395096 17.5815 10.8127 9.9447 -2.19717 -2.64965
lowerback 3.69324 0.521332 0.189521
upperback 5.40946 0.652722 1.54737
thorax 3.48384 0.297661 1.48388
lowerneck -15.0778 0.825373 -1.79035
upperneck 33.8158 1.58098 0.522103
head 14.026 0.518985 0.779243
rclavicle -5.71506e-015 5.86415e-015
rhumerus -15.0991 -3.75451 -87.4017
rradius 27.0274
rwrist 28.325
rhand -21.4725 -26.993
rfingers 7.12502
rthumb 4.91817 -56.9159
lclavicle -5.71506e-015 5.86415e-015
lhumerus -15.1996 -11.7544 92.2563
lradius 22.4661
lwrist 9.89382
lhand -27.6397 -7.7066
lfingers 7.12502
lthumb -1.03795 22.2706
rfemur -20.6303 -1.64248 22.0684
rtibia 26.537
rfoot -14.7466 0.705784
rtoes 11.6006
lfemur -17.969 6.68235 -17.6693
ltibia 25.1227
lfoot -11.9383 9.45793
ltoes -12.7166
644
root 0.393846 17.5816 10.8119 9.93354 -2.18973 -2.66363
lowerback 3.69584 0.521962 0.210912
upperback 5.3935 0.653891 1.55512
thorax 3.46586 0.298988 1.47968
lowerneck -15.0567 0.815449 -1.7992
upperneck 33.8006 1.56373 0.535438
head 14.0145 0.512547 0.783062
rclavicle -8.44835e-016 -7.35503e-015
rhumerus -15.1204 -3.80266 -87.3704
rradius 26.9821
rwrist 28.3506
rhand -21.4674 -26.9916
rfingers 7.12502
rthumb 4.92304 -56.9144
lclavicle -8.44835e-016 -7.35503e-015
lhumerus -15.2362 -11.7269 92.2527
lradius 22.4385
lwrist 9.85637
lhand -27.6241 -7.7007
lfingers 7.12502
lthumb -1.0229 22.2766
rfemur -20.6126 -1.64144 22.0881
rtibia 26.5238
rfoot -14.7403 0.702147
rtoes 11.6149
lfemur -17.9612 6.69303 -17.6484
ltibia 25.1231
lfoot -11.939 9.44247
ltoes -12.7186
645
root 0.392783 17.5818 10.8108 9.92378 -2.181 -2.66655
lowerback 3.68931 0.522817 0.225367
upperback 5.38519 0.655184 1.55861
thorax 3.46096 0.300143 1.47515
lowerneck -15.0561 0.80379 -1.80774
upperneck 33.784 1.54519 0.54651
head 14.007 0.505246 0.785883
rclavicle -5.86415e-015 -6.85807e-015
rhumerus -15.1431 -3.85883 -87.3353
rradius 26.9554
rwrist 28.3863
rhand -21.4637 -26.983
rfingers 7.12502
rthumb 4.92661 -56.9057
lclavicle -5.86415e-015 -6.85807e-015
lhumerus -15.2528 -11.7158 92.2476
lradius 22.3992
lwrist 9.83008
lhand -27.625 -7.68957
lfingers 7.12502
lthumb -1.02376 22.2877
rfemur -20.5985 -1.64367 22.0952
rtibia 26.5124
rfoot -14.7343 0.698111
rtoes 11.6188
lfemur -17.9532 6.69742 -17.6404
ltibia 25.1187
lfoot -11.9396 9.42901
ltoes -12.7074
